<?xml version="1.0" encoding="utf-8"?>
<!-- Generator: Adobe Illustrator 20.0.0, SVG Export Plug-In . SVG Version: 6.00 Build 0)  -->
<svg version="1.1" id="Layer_1" xmlns="http://www.w3.org/2000/svg" xmlns:xlink="http://www.w3.org/1999/xlink" x="0px" y="0px"
	 viewBox="0 0 152.5 149" style="enable-background:new 0 0 152.5 149;" xml:space="preserve">
<style type="text/css">
	.st0{display:none;fill:none;}
	.st1{display:none;fill:#FDFDFD;}
	.st2{fill:#F2F2F2;}
	.st3{fill:#F6F5F2;}
	.st4{fill:#5F5E60;}
	.st5{fill:#EAE8DF;}
	.st6{fill:#FFFFFF;}
	.st7{fill:#2196F3;}
</style>
<g id="egg">
	<path class="st0" d="M190.095,29.44c3.389,0.046,5.979,2.389,6.535,5.942c0.132,0.843,0.353,1.866-0.684,2.132
		c-1.072,0.275-1.162-0.704-1.32-1.592c-0.495-2.775-2.286-4.367-4.758-4.308c-2.555,0.062-4.228,1.614-4.638,4.433
		c-0.133,0.913-0.371,1.626-1.275,1.485c-0.889-0.139-0.79-1.001-0.741-1.751C183.456,32.102,186.398,29.391,190.095,29.44z"/>
	<path class="st0" d="M141.45,35.968c0.113-3.672,3.026-6.497,6.719-6.519c3.644-0.022,6.632,2.827,6.793,6.469
		c0.032,0.716-0.002,1.448-0.755,1.602c-0.807,0.165-1.102-0.411-1.271-1.264c-0.63-3.175-2.205-4.647-4.832-4.637
		c-2.556,0.01-4.07,1.469-4.644,4.618c-0.16,0.876-0.496,1.395-1.27,1.295C141.378,37.428,141.395,36.674,141.45,35.968z"/>
	<path class="st0" d="M169.021,53.909c-1.63,0.025-3.444-1.85-3.755-3.959c-0.106-0.722,0.121-0.838,0.663-0.859
		c0.992-0.038,1.836,0.34,2.484,1.145c0.521,0.648,0.891,0.905,1.546,0.123c0.762-0.91,2.018-1.896,2.823-0.917
		c0.769,0.935-0.351,2.217-1.009,3.126C171.142,53.438,170.25,53.932,169.021,53.909z"/>
</g>
<g>
	<path class="st0" d="M190.095,29.44c-3.698-0.05-6.639,2.661-6.881,6.34c-0.049,0.749-0.148,1.611,0.741,1.751
		c0.904,0.142,1.142-0.571,1.275-1.484c0.41-2.819,2.084-4.371,4.638-4.433c2.472-0.06,4.263,1.533,4.758,4.308
		c0.159,0.888,0.248,1.867,1.32,1.592c1.036-0.266,0.816-1.289,0.684-2.132C196.074,31.83,193.485,29.486,190.095,29.44z"/>
	<path class="st1" d="M155.205,147.505c-4.84-1.068-9.437-2.853-13.998-4.889c-4.14-2.291-8.303-4.541-12.053-7.585
		c-4.483-3.639-8.703-7.692-12.274-12.419c-2.031-2.688-3.841-5.67-5.761-8.482c-2.192-3.209-3.309-7.004-5.35-10.227
		c-0.862-1.361-0.871-3.003-1.44-4.459c-2.578-6.603-3.529-13.633-4.341-20.725c-0.933-8.148-0.25-16.216,0.901-24.211
		c0.962-6.684,2.478-13.259,4.238-19.771c2.792-10.327,6.429-20.236,10.874-29.777c4.116-8.837,8.94-17.135,14.613-24.862
		c4.197-5.717,8.786-10.824,14.071-15.18C152.098-41.19,160-44.843,169-44.84v-67.66H51v348h118v-86.486
		C164,149.019,159.822,148.524,155.205,147.505z"/>
	<path class="st1" d="M148.169,29.449c-3.693,0.022-6.605,2.848-6.718,6.519c-0.056,0.706-0.073,1.46,0.739,1.565
		c0.774,0.1,1.111-0.419,1.27-1.295c0.574-3.149,2.088-4.609,4.645-4.618c2.627-0.01,4.202,1.462,4.832,4.637
		c0.169,0.853,0.463,1.429,1.271,1.264c0.754-0.154,0.787-0.886,0.755-1.602C154.801,32.276,151.813,29.427,148.169,29.449z"/>
</g>
<g>
	<circle class="st2" cx="76.108" cy="74.27" r="72"/>
</g>
<g>
	<path class="st3" d="M98.951,115.747c2.929-2.619,5.657-5.418,7.647-8.844c7.975-13.734,7.458-28.106,3.092-42.723
		c-0.557-1.866-0.572-5.662-4.025-1.836c-1.036,1.148-2.072,0.033-2.688-0.823c-1.902-2.644-2.272-5.452-0.08-8.097
		c5.178-6.25,0.603-21.221-7.247-23.469c-2.504-0.717-5.037-0.606-7.29,0.718c-1.622,0.953-3.138,0.995-4.912,0.68
		c-10.026-1.781-18.265,1.576-24.584,9.328c-1.993,2.445-4.211,3.939-7.083,4.904c-7.534,2.532-8.051,4.266-3.738,11.028
		c0.896,1.404,2.856,2.795,0.714,4.844c-2.239,2.141-2.571-1.595-4.181-1.221c-9.858,19.103-5.292,43.49,10.645,56.847
		c-0.663,1.612-3.948,0.872-3.37,3.221c0.498,2.021,2.389,3.183,4.526,3.635c0.454,0.096,0.87,0.392,1.324,0.466
		c12.233,1.992,24.389,4.039,36.659-0.346C100.66,121.808,100.948,122.039,98.951,115.747z"/>
	<path class="st4" d="M55.22,117.084c-15.936-13.357-20.503-37.744-10.645-56.845c1.61-0.376,1.943,3.36,4.181,1.219
		c2.142-2.048,0.182-3.44-0.714-4.844c-4.313-6.762-3.796-8.496,3.738-11.028c2.872-0.965,5.09-2.459,7.083-4.904
		c6.319-7.752,14.558-11.109,24.584-9.328c1.774,0.315,3.29,0.273,4.912-0.68c2.253-1.324,4.786-1.435,7.29-0.718
		c7.85,2.248,12.425,17.219,7.247,23.469c-2.192,2.645-1.822,5.453,0.08,8.097c0.616,0.856,1.652,1.971,2.688,0.823
		c3.453-3.826,3.467-0.03,4.025,1.836c4.367,14.617,4.884,28.989-3.092,42.723c-1.989,3.425-4.717,6.224-7.646,8.844
		C84.658,125.47,70.066,125.414,55.22,117.084z M93.693,64.542c1.122,1.289,2.443,2.167,4.59,2.421
		c0-4.408,0.191-8.467-0.037-12.503c-0.604-10.675-6.675-18.119-15.9-19.791C63.983,31.253,52.689,50.95,54.621,67.363
		c4.155-1.177,7.731-6.931,12.671-1.854c2.283,1.817,4.615,3.576,6.834,5.469c1.849,1.578,3.28,1.311,4.539-0.66
		c1.923-1.29,4.053-2.358,5.723-3.919C87.196,63.775,90.043,62.445,93.693,64.542z M61.757,108.843
		c-0.413,1.509-0.372,2.557-0.844,2.9c-3.819,2.78-1.697,3.729,1.223,5.001c9.765,4.252,18.976,2.903,27.712-2.608
		c11.655-7.354,18.825-28.413,14.351-41.445c-0.399-1.162-0.899-1.56-1.986-1.035c-2.922,1.413-5.233-0.154-7.337-1.742
		c-3.47-2.62-6.226-2.49-9.867,0.291c-9.826,7.505-7.41,7.886-17.549-0.058c-3.393-2.659-5.933-3.318-9.366-0.637
		c-3.792,2.962-7.492,3.876-10.645-1.104c-1.149-1.815-2.208-1.395-2.63,0.702c-2.667,13.254-2.902,26.186,5.27,37.905
		C53.864,112.428,54.988,112.583,61.757,108.843z M54.115,47.778c-2.877,0.595-5.501,0.712-6.258,3.537
		c-0.244,0.91,0.856,2.637,2.113,2.597C53.721,53.79,52.946,50.447,54.115,47.778z"/>
	<path class="st5" d="M55.22,117.084c14.845,8.33,29.438,8.386,43.731-1.337c1.997,6.292,1.709,6.061-4.592,8.313
		c-12.27,4.386-24.426,2.338-36.659,0.346c-0.454-0.074-0.87-0.37-1.324-0.466c-2.138-0.452-4.029-1.614-4.526-3.635
		C51.272,117.956,54.557,118.697,55.22,117.084z"/>
	<path class="st6" d="M61.757,108.843c-6.769,3.739-7.892,3.585-11.669-1.831c-8.171-11.719-7.937-24.651-5.27-37.905
		c0.422-2.097,1.481-2.517,2.63-0.702c3.153,4.979,6.854,4.065,10.645,1.104c3.433-2.681,5.973-2.022,9.366,0.637
		c10.139,7.945,7.723,7.563,17.549,0.058c3.641-2.781,6.397-2.911,9.867-0.291c2.104,1.588,4.415,3.155,7.337,1.742
		c1.087-0.525,1.587-0.128,1.986,1.035c4.474,13.032-2.696,34.091-14.351,41.445c-8.736,5.512-17.947,6.861-27.712,2.608
		c-2.92-1.272-5.042-2.221-1.223-5.001C61.384,111.4,61.344,110.353,61.757,108.843z"/>
	<path class="st6" d="M67.293,65.509c-4.941-5.077-8.517,0.676-12.671,1.854c-1.933-16.413,9.362-36.111,27.724-32.695
		c5.048,5.019,10.568,9.787,10.448,17.806c-0.061,4.057,0.087,8.082,0.899,12.067c-3.649-2.096-6.496-0.767-9.304,1.858
		c-1.67,1.561-3.8,2.63-5.723,3.919C73.835,63.771,72.173,63.068,67.293,65.509z M68.925,49.482
		c-0.299-1.129-0.909-1.961-2.169-1.87c-1.044,0.075-1.626,0.838-1.636,1.839c-0.01,1.002,0.56,1.764,1.604,1.867
		C67.998,51.444,68.596,50.602,68.925,49.482z"/>
	<path class="st5" d="M93.693,64.542c-0.812-3.984-0.959-8.009-0.899-12.067c0.12-8.019-5.4-12.787-10.448-17.806
		c9.225,1.672,15.296,9.116,15.9,19.791c0.228,4.036,0.037,8.095,0.037,12.503C96.136,66.708,94.814,65.83,93.693,64.542z"/>
	<path class="st5" d="M67.293,65.509c4.88-2.442,6.543-1.739,11.373,4.81c-1.259,1.971-2.69,2.237-4.539,0.66
		C71.908,69.086,69.576,67.327,67.293,65.509z"/>
	<path class="st6" d="M54.115,47.778c-1.169,2.67-0.394,6.013-4.145,6.133c-1.257,0.04-2.357-1.686-2.113-2.597
		C48.614,48.49,51.238,48.372,54.115,47.778z"/>
	<path class="st4" d="M68.925,49.482c-0.328,1.12-0.927,1.962-2.201,1.836c-1.044-0.103-1.613-0.866-1.604-1.867
		c0.01-1.001,0.592-1.763,1.636-1.839C68.015,47.521,68.626,48.353,68.925,49.482z"/>
</g>
<rect x="73.42" y="82.072" transform="matrix(0.7071 0.7071 -0.7071 0.7071 87.8833 -25.6596)" class="st7" width="2.991" height="22.366"/>
<circle class="st7" cx="69.389" cy="87.728" r="3.15"/>
<circle class="st7" cx="80.456" cy="98.795" r="3.15"/>
</svg>
